<?xml version="1.0" standalone="no"?>
<!DOCTYPE svg PUBLIC "-//W3C//DTD SVG 20010904//EN"
 "http://www.w3.org/TR/2001/REC-SVG-20010904/DTD/svg10.dtd">
<svg version="1.0" xmlns="http://www.w3.org/2000/svg"
 width="700.000000pt" height="700.000000pt" viewBox="0 0 700.000000 700.000000"
 preserveAspectRatio="xMidYMid meet">
<metadata>
Created by potrace 1.11, written by Peter Selinger 2001-2013
</metadata>
<g transform="translate(0.000000,700.000000) scale(0.100000,-0.100000)"
fill="#000000" stroke="none">
<path d="M1346 6977 c-76 -43 -76 -44 -76 -465 0 -408 0 -405 60 -455 17 -15
45 -29 63 -31 18 -3 264 -7 547 -10 283 -2 524 -6 535 -9 11 -2 45 -8 75 -11
50 -7 117 -18 180 -32 14 -3 36 -7 50 -10 84 -16 308 -107 385 -156 63 -41
138 -104 185 -155 49 -53 133 -173 126 -180 -1 -2 -470 -3 -1040 -3 -893 -1
-1043 -3 -1073 -15 -40 -17 -70 -47 -85 -85 -6 -15 -10 -148 -9 -317 0 -314 1
-322 54 -371 14 -13 40 -27 59 -31 18 -4 513 -7 1101 -7 587 1 1067 0 1067 -1
0 -16 -67 -179 -91 -222 -82 -145 -215 -279 -359 -363 -96 -55 -119 -66 -205
-101 -145 -58 -321 -101 -497 -123 -24 -3 -56 -7 -73 -9 -66 -10 -327 -17
-631 -19 l-321 -1 -37 -29 c-67 -51 -68 -59 -67 -448 1 -376 0 -374 57 -435
39 -43 195 -212 228 -247 36 -39 94 -103 171 -186 33 -36 92 -101 130 -144 39
-43 81 -91 95 -106 14 -15 50 -55 80 -90 30 -35 60 -68 65 -74 6 -6 44 -49 85
-96 41 -47 80 -90 85 -96 18 -20 69 -78 140 -159 39 -44 72 -82 75 -85 3 -3
43 -50 90 -105 103 -122 131 -154 150 -175 8 -9 37 -43 65 -75 27 -33 62 -73
76 -90 15 -16 46 -53 70 -81 24 -28 67 -77 95 -110 28 -32 165 -194 303 -359
139 -165 305 -362 368 -437 64 -75 130 -144 147 -152 27 -13 102 -15 566 -13
517 2 536 3 563 22 31 22 68 85 72 124 5 40 -19 86 -88 169 -94 115 -338 411
-450 547 -55 66 -116 140 -136 164 -52 64 -144 174 -156 187 -5 6 -28 33 -51
60 -23 27 -96 114 -163 194 -67 80 -130 154 -139 165 -25 30 -123 145 -153
180 -159 182 -404 464 -452 520 -49 57 -169 190 -257 285 -8 9 -53 59 -100
110 -47 52 -104 115 -127 140 -23 24 -39 48 -35 51 4 4 32 10 62 13 44 5 289
53 360 70 180 44 413 134 570 219 75 41 224 134 257 161 10 8 47 38 83 67 140
113 296 287 394 442 126 199 227 463 262 685 4 24 14 46 23 50 9 4 201 7 426
6 254 -1 423 2 445 8 19 6 46 20 58 32 51 46 53 56 53 369 0 330 -3 348 -68
388 -45 28 -42 28 -559 29 l-381 0 -22 90 c-46 190 -132 384 -240 544 -28 42
-47 77 -43 77 4 1 270 2 592 3 322 1 596 6 610 10 33 11 68 44 87 81 14 25 16
77 16 321 0 323 -4 342 -67 387 l-31 22 -2120 2 -2120 3 -39 -23z"/>
</g>
</svg>
